<svg xmlns="http://www.w3.org/2000/svg" viewBox="0 0 1200 800">
  <defs>
    <linearGradient id="bg" x1="0" y1="0" x2="0" y2="1">
      <stop offset="0%" stop-color="#04132b" />
      <stop offset="100%" stop-color="#0d2a4c" />
    </linearGradient>
    <linearGradient id="water" x1="0" y1="0" x2="1" y2="1">
      <stop offset="0%" stop-color="#0da9ff" />
      <stop offset="100%" stop-color="#0468b5" />
    </linearGradient>
  </defs>
  <rect width="1200" height="800" fill="url(#bg)" />
  <path d="M0 500 Q300 420 600 500 T1200 500 L1200 800 L0 800 Z" fill="url(#water)" opacity="0.88" />
  <path d="M0 540 Q300 460 600 540 T1200 540 L1200 800 L0 800 Z" fill="#7ec1ff" opacity="0.55" />
  <rect x="220" y="280" width="760" height="240" rx="24" fill="#1b2b47" opacity="0.95" />
  <rect x="320" y="340" width="520" height="120" rx="14" fill="#2f4b7b" />
  <path d="M320 380 Q420 320 520 380 T720 380 T920 380" fill="none" stroke="#84c5ff" stroke-width="24" stroke-linecap="round" />
  <circle cx="400" cy="400" r="24" fill="#f5f7ff" />
  <circle cx="800" cy="360" r="28" fill="#f5f7ff" />
  <text x="600" y="720" text-anchor="middle" fill="#dbeafe" font-family="Inter, sans-serif" font-size="56" font-weight="700">Flooded Street</text>
</svg>