<svg xmlns="http://www.w3.org/2000/svg" viewBox="0 0 1200 800">
  <defs>
    <linearGradient id="bg" x1="0" y1="0" x2="0" y2="1">
      <stop offset="0%" stop-color="#06172b" />
      <stop offset="100%" stop-color="#0c2b45" />
    </linearGradient>
    <linearGradient id="water" x1="0" y1="0" x2="1" y2="1">
      <stop offset="0%" stop-color="#1e75ff" />
      <stop offset="100%" stop-color="#1360a3" />
    </linearGradient>
  </defs>
  <rect width="1200" height="800" fill="url(#bg)" />
  <path d="M0 520 Q300 430 600 520 T1200 520 L1200 800 L0 800 Z" fill="url(#water)" opacity="0.92" />
  <circle cx="330" cy="300" r="72" fill="#f4f9ff" opacity="0.95" />
  <circle cx="500" cy="340" r="64" fill="#f4f9ff" opacity="0.94" />
  <circle cx="700" cy="280" r="70" fill="#f4f9ff" opacity="0.92" />
  <rect x="240" y="420" width="220" height="90" rx="24" fill="#2e4f7c" />
  <rect x="460" y="440" width="220" height="80" rx="24" fill="#2e4f7c" />
  <rect x="680" y="420" width="220" height="100" rx="24" fill="#2e4f7c" />
  <path d="M320 430 C330 380 370 360 410 390" stroke="#f4f9ff" stroke-width="18" fill="none" stroke-linecap="round" />
  <path d="M540 450 C560 400 600 380 630 420" stroke="#f4f9ff" stroke-width="18" fill="none" stroke-linecap="round" />
  <path d="M760 430 C780 380 820 360 850 400" stroke="#f4f9ff" stroke-width="18" fill="none" stroke-linecap="round" />
  <text x="600" y="720" text-anchor="middle" fill="#cbd5e1" font-family="Inter, sans-serif" font-size="52" font-weight="700">Flood Relief Volunteers</text>
</svg>