<svg xmlns="http://www.w3.org/2000/svg" viewBox="0 0 1200 800">
  <defs>
    <linearGradient id="sky" x1="0" y1="0" x2="0" y2="1">
      <stop offset="0%" stop-color="#142a46" />
      <stop offset="100%" stop-color="#0d1f31" />
    </linearGradient>
    <linearGradient id="water" x1="0" y1="0" x2="1" y2="0">
      <stop offset="0%" stop-color="#0a5ba1" />
      <stop offset="100%" stop-color="#154d7b" />
    </linearGradient>
  </defs>
  <rect width="1200" height="800" fill="url(#sky)" />
  <path d="M0 440 C300 380 500 520 700 460 S1200 420 1200 420 L1200 800 L0 800 Z" fill="url(#water)" />
  <path d="M0 480 C300 420 500 560 700 500 S1200 460 1200 460 L1200 800 L0 800 Z" fill="#65b4ff" opacity="0.7" />
  <path d="M360 340 L840 340 L780 460 L420 460 Z" fill="#f8e4b0" />
  <path d="M420 460 L780 460 L700 520 L500 520 Z" fill="#bf5e21" />
  <circle cx="600" cy="320" r="40" fill="#d93a2b" />
  <text x="600" y="720" text-anchor="middle" fill="#e8f2ff" font-family="Inter, sans-serif" font-size="56" font-weight="700">Rescue Boat</text>
</svg>